<?xml version="1.0" encoding="utf-8"?>
<!-- Generator: Adobe Illustrator 16.0.0, SVG Export Plug-In . SVG Version: 6.00 Build 0)  -->
<!DOCTYPE svg PUBLIC "-//W3C//DTD SVG 1.1//EN" "http://www.w3.org/Graphics/SVG/1.1/DTD/svg11.dtd" [
	<!ENTITY ns_flows "http://ns.adobe.com/Flows/1.0/">
	<!ENTITY ns_extend "http://ns.adobe.com/Extensibility/1.0/">
	<!ENTITY ns_ai "http://ns.adobe.com/AdobeIllustrator/10.0/">
	<!ENTITY ns_graphs "http://ns.adobe.com/Graphs/1.0/">
	<!ENTITY ns_vars "http://ns.adobe.com/Variables/1.0/">
	<!ENTITY ns_imrep "http://ns.adobe.com/ImageReplacement/1.0/">
	<!ENTITY ns_sfw "http://ns.adobe.com/SaveForWeb/1.0/">
	<!ENTITY ns_custom "http://ns.adobe.com/GenericCustomNamespace/1.0/">
	<!ENTITY ns_adobe_xpath "http://ns.adobe.com/XPath/1.0/">
]>
<svg version="1.1" id="Layer_1" xmlns:x="&ns_extend;" xmlns:i="&ns_ai;" xmlns:graph="&ns_graphs;"
	 xmlns="http://www.w3.org/2000/svg" xmlns:xlink="http://www.w3.org/1999/xlink" xmlns:a="http://ns.adobe.com/AdobeSVGViewerExtensions/3.0/"
	 x="0px" y="0px" width="500px" height="190px" viewBox="0 0 500 190" enable-background="new 0 0 500 190" xml:space="preserve">
<metadata>
	<sfw  xmlns="&ns_sfw;">
		<slices></slices>
		<sliceSourceBounds  height="190" width="500" y="-195" x="0" bottomLeftOrigin="true"></sliceSourceBounds>
	</sfw>
</metadata>
<rect x="141" y="135" fill="#7B8783" width="359" height="55"/>
<rect y="135" fill="#D8A03F" width="136" height="55"/>
<rect fill="#7B8783" width="500" height="131"/>
<polygon fill="#FFFFFF" points="205,167.5 211.2,167.5 211.2,170.1 202.4,170.1 202.4,155 205,155 "/>
<rect x="217.6" y="155" fill="#FFFFFF" width="2.6" height="15"/>
<polygon fill="#FFFFFF" points="238.2,155 238.2,157.6 233.7,157.6 233.7,170.1 231.1,170.1 231.1,157.6 226.5,157.6 226.5,155 "/>
<polygon fill="#FFFFFF" points="259,155 261.5,155 261.5,170.1 259,170.1 259,160.4 254.4,170.1 251.7,170.1 247.1,160.4 
	247.1,170.1 244.5,170.1 244.5,155 247.1,155 253,167.5 "/>
<path fill="#FFFFFF" d="M276.7,164.3l-2.1-6.1l-2.1,6.1H276.7z M277.6,166.9h-6.1l-1.1,3.2h-2.6l5.3-15h3.1l5.3,15h-2.6L277.6,166.9
	z"/>
<polygon fill="#FFFFFF" points="297.3,155 299.9,155 299.9,170.1 297.2,170.1 290.3,159.2 290.3,170.1 287.7,170.1 287.7,155 
	290.4,155 297.3,166 "/>
<path fill="#FFFFFF" d="M322.6,161.9h7.4c0,0.2,0,0.4,0,0.7c0,2.3-0.6,4.1-1.9,5.6c-1.3,1.5-3,2.2-5.2,2.2c-2.2,0-3.9-0.7-5.2-2.2
	c-1.3-1.5-2-3.3-2-5.6c0-2.3,0.7-4.1,2-5.6c1.3-1.5,3-2.2,5.2-2.2c1.6,0,3,0.4,4.2,1.3c1.2,0.9,2,2.1,2.5,3.6h-2.9
	c-0.8-1.5-2-2.3-3.8-2.3c-1.4,0-2.5,0.5-3.3,1.4c-0.8,1-1.2,2.2-1.2,3.8c0,1.6,0.4,2.8,1.2,3.8c0.8,1,1.9,1.4,3.3,1.4
	c1.1,0,2-0.3,2.7-0.9c0.7-0.6,1.2-1.4,1.5-2.5h-4.5V161.9z"/>
<path fill="#FFFFFF" d="M338.8,162.3h2.8c0.6,0,1.1-0.2,1.5-0.6c0.4-0.4,0.6-1,0.6-1.7s-0.2-1.3-0.6-1.7c-0.4-0.4-0.9-0.6-1.5-0.6
	h-2.8V162.3z M347.3,170.1H344l-5.2-5.2v5.2h-2.6v-15h5.3c1.5,0,2.7,0.5,3.5,1.4c0.8,0.9,1.2,2.1,1.2,3.6c0,1.4-0.4,2.5-1.1,3.4
	c-0.7,0.9-1.8,1.4-3.1,1.5L347.3,170.1z"/>
<polygon fill="#FFFFFF" points="356.4,157.5 356.4,161.1 362,161.1 362,163.5 356.4,163.5 356.4,167.6 363,167.6 363,170.1 
	353.9,170.1 353.9,155.1 363,155.1 363,157.5 "/>
<path fill="#FFFFFF" d="M376.1,161.9h7.3c0,0.2,0,0.4,0,0.7c0,2.3-0.6,4.1-1.9,5.6c-1.3,1.5-3,2.2-5.2,2.2c-2.2,0-3.9-0.7-5.2-2.2
	c-1.3-1.5-2-3.3-2-5.6c0-2.3,0.7-4.1,2-5.6c1.3-1.5,3-2.2,5.2-2.2c1.6,0,3,0.4,4.2,1.3c1.2,0.9,2,2.1,2.5,3.6h-2.9
	c-0.8-1.5-2-2.3-3.8-2.3c-1.4,0-2.5,0.5-3.3,1.4c-0.8,1-1.2,2.2-1.2,3.8c0,1.6,0.4,2.8,1.2,3.8c0.8,1,1.9,1.4,3.3,1.4
	c1.1,0,2-0.3,2.7-0.9c0.7-0.6,1.2-1.4,1.5-2.5h-4.5V161.9z"/>
<path fill="#FFFFFF" d="M393.5,166.3c0.8,1,2,1.5,3.4,1.5c1.4,0,2.6-0.5,3.4-1.5c0.8-1,1.3-2.2,1.3-3.8c0-1.6-0.4-2.8-1.3-3.8
	c-0.8-1-2-1.4-3.4-1.4c-1.5,0-2.6,0.5-3.4,1.4c-0.8,1-1.2,2.2-1.2,3.8C392.2,164.1,392.6,165.4,393.5,166.3z M391.6,156.9
	c1.4-1.5,3.1-2.2,5.3-2.2c2.2,0,3.9,0.7,5.3,2.2c1.4,1.5,2,3.3,2,5.6c0,2.3-0.7,4.1-2,5.6c-1.4,1.5-3.1,2.2-5.3,2.2
	c-2.2,0-3.9-0.7-5.3-2.2c-1.4-1.5-2-3.3-2-5.6C389.6,160.3,390.3,158.4,391.6,156.9z"/>
<path fill="#FFFFFF" d="M413.1,162.3h2.8c0.6,0,1.1-0.2,1.5-0.6c0.4-0.4,0.6-1,0.6-1.7s-0.2-1.3-0.6-1.7c-0.4-0.4-0.9-0.6-1.5-0.6
	h-2.8V162.3z M421.6,170.1h-3.3l-5.2-5.2v5.2h-2.6v-15h5.3c1.5,0,2.7,0.5,3.5,1.4c0.8,0.9,1.2,2.1,1.2,3.6c0,1.4-0.4,2.5-1.1,3.4
	c-0.7,0.9-1.8,1.4-3.1,1.5L421.6,170.1z"/>
<polygon fill="#FFFFFF" points="435.3,155.1 438.2,155.1 433.2,164.1 433.2,170.1 430.6,170.1 430.6,164.1 425.6,155.1 428.5,155.1 
	431.9,161.4 "/>
<polygon fill="#FFFFFF" points="96.4,45.5 103.6,45.5 103.6,88 96.4,88 96.4,60.7 83.3,88 75.8,88 62.8,60.7 62.8,88 55.5,88 
	55.5,45.5 62.8,45.5 79.6,80.6 "/>
<path fill="#FFFFFF" d="M116.7,79.6c0,1.4,0.8,2.4,2.5,2.8c1.9,0.6,3.8,0.2,5.5-1.1c2-1.4,3-3.4,3-6.2c-4.4,0.6-7.2,1.1-8.3,1.5
	C117.6,77.3,116.7,78.3,116.7,79.6z M135.2,78.4c0,1.2,0.2,2.1,0.7,2.8c0.5,0.7,1.4,1,2.9,1V88h-1.9c-3.6,0-6-1.2-7-3.5
	c-0.9,1.4-2.1,2.4-3.7,3.1c-1.6,0.7-2.9,1-4.1,1.1h-1.8c-3.5,0-6.2-0.8-8.3-2.4c-2.1-1.6-3.1-3.8-3.1-6.6c0-5,3.6-8.3,10.7-9.8
	c1.3-0.3,2.6-0.5,3.9-0.6c1.3-0.1,2.4-0.2,3.1-0.2h1.1c0,0,0-0.2,0-0.5c0.1-0.3,0-0.7-0.2-1.2c-0.2-0.5-0.4-1-0.7-1.4
	c-0.3-0.5-0.8-0.8-1.5-1.2c-0.7-0.3-1.6-0.5-2.6-0.5c-1.5,0-2.7,0.3-3.5,1c-0.8,0.7-1.2,1.3-1.3,2.1l-7.3-1.9c0.8-2.2,2.1-4,4-5.5
	c1.9-1.5,4.6-2.2,8.1-2.2c2.4,0,4.4,0.4,6.1,1.1c1.7,0.8,3,1.7,3.8,2.9c0.8,1.2,1.4,2.4,1.8,3.6c0.4,1.2,0.5,2.4,0.5,3.6V78.4z"/>
<path fill="#FFFFFF" d="M154,69.9c1.1,0.2,1.9,0.4,2.5,0.6c0.6,0.2,1.4,0.4,2.4,0.8c1,0.3,1.8,0.7,2.3,1.2c0.6,0.4,1.2,1,1.8,1.6
	c0.6,0.6,1.1,1.4,1.4,2.3c0.3,0.9,0.4,1.9,0.4,3c0,3-1.1,5.3-3.2,7c-2.1,1.7-4.9,2.5-8.3,2.5c-3.5,0-6.4-0.9-8.6-2.6
	c-2.2-1.7-3.4-4-3.6-6.8h7.1c0.6,2.1,2.2,3.2,5,3.2c1.4,0,2.4-0.3,3.3-0.8c0.8-0.5,1.2-1.3,1.2-2.2c0-0.7-0.3-1.3-0.8-1.8
	c-0.5-0.5-1.1-0.9-1.8-1.1c-0.6-0.2-1.4-0.5-2.4-0.7c-1.4-0.3-2.5-0.6-3.2-0.8c-0.8-0.2-1.7-0.5-2.7-0.8c-1.1-0.4-1.8-0.7-2.4-1.1
	c-0.5-0.4-1.1-0.9-1.6-1.4c-0.6-0.6-1-1.2-1.2-2c-0.2-0.8-0.3-1.6-0.3-2.6c0-2.8,1-5,2.9-6.7c2-1.7,4.7-2.5,8.3-2.5
	c3.5,0,6.3,0.9,8.4,2.6c2.1,1.7,3.2,4,3.5,6.8h-7.1c-0.2-0.9-0.7-1.6-1.4-2.2c-0.8-0.6-1.8-0.9-3.1-0.9c-1.2,0-2.2,0.3-3,0.8
	c-0.7,0.6-1.1,1.2-1.1,2c0,0.8,0.4,1.4,1.2,1.8C150.9,69.1,152.2,69.5,154,69.9z"/>
<path fill="#FFFFFF" d="M179.3,64.6v12.9c0,3,1.1,4.5,3.3,4.5c0.7,0,1.7-0.1,3-0.5v6.4c-1.2,0.5-2.7,0.7-4.2,0.7
	c-2.8,0-5.1-0.8-6.8-2.3c-1.7-1.5-2.5-3.6-2.5-6.2V64.6h-4.9v-6.1h1.5c0.9,0,1.7-0.3,2.4-1c0.7-0.7,1-1.5,1-2.4v-4.5h7.3v7.9h6.3
	v6.1H179.3z"/>
<path fill="#FFFFFF" d="M212.4,70.7c-0.4-2-1.3-3.5-2.6-4.6c-1.3-1.1-3-1.7-5-1.7c-2,0-3.6,0.6-4.9,1.7c-1.3,1.1-2.2,2.7-2.6,4.6
	H212.4z M220,73.4c0,1.1,0,2-0.1,2.8h-22.5c0.5,1.8,1.4,3.3,2.7,4.4c1.3,1.1,2.9,1.6,4.8,1.6c2.8,0,4.9-1.1,6.3-3.2h7.8
	c-1.1,3-2.9,5.4-5.4,7.2c-2.5,1.8-5.4,2.7-8.7,2.7c-4.3,0-7.9-1.5-10.7-4.4c-2.8-2.9-4.3-6.7-4.3-11.1c0-4.4,1.4-8.1,4.3-11
	c2.8-2.9,6.4-4.4,10.7-4.4c4.3,0,7.9,1.5,10.8,4.5C218.5,65.2,220,68.9,220,73.4z"/>
<path fill="#FFFFFF" d="M240.8,57.8c0.8,0,1.6,0.1,2.3,0.2v7.5c-1.9-0.4-3.4-0.6-4.4-0.6c-1,0-1.9,0.2-2.7,0.5
	c-0.8,0.3-1.4,0.7-1.9,1.2c-0.5,0.5-0.9,1-1.2,1.6c-0.3,0.6-0.5,1.1-0.7,1.7c-0.1,0.6-0.2,1.1-0.3,1.6c-0.1,0.5-0.1,0.9,0,1.2v0.5
	V88h-7.3V58.5h7.2v4c0.2-0.4,0.5-0.8,0.8-1.2c0.3-0.4,0.8-0.9,1.5-1.5c0.7-0.6,1.6-1.1,2.8-1.5C238.1,58,239.4,57.8,240.8,57.8z"/>
<path fill="#FFFFFF" d="M260,69.9c1.1,0.2,1.9,0.4,2.5,0.6c0.6,0.2,1.4,0.4,2.4,0.8c1,0.3,1.8,0.7,2.3,1.2c0.6,0.4,1.2,1,1.8,1.6
	c0.6,0.6,1.1,1.4,1.4,2.3c0.3,0.9,0.4,1.9,0.4,3c0,3-1.1,5.3-3.2,7c-2.1,1.7-4.9,2.5-8.3,2.5c-3.5,0-6.4-0.9-8.6-2.6
	c-2.2-1.7-3.4-4-3.6-6.8h7.1c0.6,2.1,2.2,3.2,5,3.2c1.4,0,2.4-0.3,3.3-0.8c0.8-0.5,1.2-1.3,1.2-2.2c0-0.7-0.3-1.3-0.8-1.8
	c-0.5-0.5-1.1-0.9-1.8-1.1c-0.6-0.2-1.4-0.5-2.4-0.7c-1.4-0.3-2.5-0.6-3.2-0.8c-0.8-0.2-1.7-0.5-2.7-0.8c-1.1-0.4-1.8-0.7-2.4-1.1
	c-0.5-0.4-1.1-0.9-1.6-1.4c-0.6-0.6-1-1.2-1.2-2c-0.2-0.8-0.3-1.6-0.3-2.6c0-2.8,1-5,2.9-6.7c2-1.7,4.7-2.5,8.3-2.5
	c3.5,0,6.3,0.9,8.4,2.6c2,1.7,3.2,4,3.5,6.8h-7.1c-0.2-0.9-0.7-1.6-1.4-2.2c-0.8-0.6-1.8-0.9-3.1-0.9c-1.2,0-2.2,0.3-3,0.8
	c-0.7,0.6-1.1,1.2-1.1,2c0,0.8,0.4,1.4,1.2,1.8C256.9,69.1,258.2,69.5,260,69.9z"/>
<polygon fill="#FFFFFF" points="315.5,52.7 296.9,52.7 296.9,63.3 312.3,63.3 312.3,70.6 296.9,70.6 296.9,88 289.7,88 289.7,45.5 
	315.5,45.5 "/>
<path fill="#FFFFFF" d="M332.3,88.7c-3.4,0-6.1-1.1-8.1-3.2c-2-2.2-2.9-5.2-2.9-9v-18h7.3v16.8V76c0,0.3,0.1,0.8,0.3,1.6
	c0.2,0.8,0.5,1.5,0.9,2.1c0.4,0.6,1,1.1,1.9,1.6c0.9,0.5,1.9,0.7,3.2,0.7c1.3,0,2.4-0.3,3.3-0.8c0.9-0.5,1.5-1.1,1.9-1.8
	c0.4-0.7,0.7-1.4,0.9-2.1c0.2-0.7,0.3-1.3,0.3-1.9v-0.7V58.5h7.3V88h-7.3v-4C339.5,87.2,336.5,88.7,332.3,88.7z"/>
<path fill="#FFFFFF" d="M370.6,57.8c3.4,0,6.1,1.1,8.1,3.2c2,2.2,2.9,5.2,2.9,9v18h-7.3V71.2v-0.7c0-0.3-0.1-0.8-0.3-1.6
	c-0.2-0.8-0.5-1.5-0.9-2.1c-0.4-0.6-1-1.1-1.9-1.6c-0.9-0.5-2-0.7-3.2-0.7c-1.3,0-2.4,0.3-3.3,0.8c-0.9,0.5-1.5,1.1-1.9,1.8
	c-0.4,0.7-0.7,1.4-0.9,2.1c-0.2,0.7-0.3,1.3-0.3,1.9v0.7V88h-7.3V58.5h7.3v4C363.4,59.3,366.4,57.8,370.6,57.8z"/>
<path fill="#FFFFFF" d="M396.5,79.8c1.3,1.6,3.1,2.4,5.5,2.4c2.4,0,4.2-0.8,5.5-2.4c1.3-1.6,1.9-3.7,1.9-6.5c0-2.8-0.6-4.9-1.9-6.5
	c-1.3-1.6-3.1-2.3-5.5-2.3c-2.4,0-4.2,0.8-5.5,2.3c-1.3,1.6-1.9,3.7-1.9,6.5C394.6,76,395.2,78.2,396.5,79.8z M400.9,57.8
	c3.1,0,5.8,1.1,8,3.3V45.5h7.3V88h-7.3v-2.4c-2.2,2.1-4.8,3.2-7.9,3.2c-4.1,0-7.4-1.5-9.9-4.4s-3.8-6.6-3.8-11.1
	c0-4.5,1.3-8.2,3.8-11.1C393.6,59.3,396.9,57.8,400.9,57.8z"/>
<path fill="#FFFFFF" d="M433.6,69.9c1.1,0.2,1.9,0.4,2.5,0.6c0.6,0.2,1.4,0.4,2.4,0.8c1,0.3,1.8,0.7,2.3,1.2c0.6,0.4,1.2,1,1.8,1.6
	c0.6,0.6,1.1,1.4,1.4,2.3c0.3,0.9,0.4,1.9,0.4,3c0,3-1.1,5.3-3.2,7c-2.1,1.7-4.9,2.5-8.3,2.5c-3.5,0-6.4-0.9-8.6-2.6
	c-2.2-1.7-3.4-4-3.6-6.8h7.1c0.6,2.1,2.2,3.2,5,3.2c1.4,0,2.4-0.3,3.3-0.8s1.2-1.3,1.2-2.2c0-0.7-0.3-1.3-0.8-1.8
	c-0.5-0.5-1.1-0.9-1.8-1.1c-0.6-0.2-1.4-0.5-2.4-0.7c-1.4-0.3-2.5-0.6-3.2-0.8c-0.8-0.2-1.7-0.5-2.7-0.8c-1.1-0.4-1.8-0.7-2.4-1.1
	c-0.5-0.4-1.1-0.9-1.6-1.4c-0.6-0.6-1-1.2-1.2-2c-0.2-0.8-0.3-1.6-0.3-2.6c0-2.8,1-5,2.9-6.7c2-1.7,4.7-2.5,8.3-2.5
	c3.5,0,6.3,0.9,8.4,2.6c2.1,1.7,3.2,4,3.5,6.8h-7.1c-0.2-0.9-0.7-1.6-1.4-2.2c-0.8-0.6-1.8-0.9-3.1-0.9c-1.2,0-2.2,0.3-3,0.8
	c-0.7,0.6-1.1,1.2-1.1,2c0,0.8,0.4,1.4,1.2,1.8C430.5,69.1,431.8,69.5,433.6,69.9z"/>
</svg>
